<svg width="64" height="64" viewBox="0 0 64 64" fill="none" xmlns="http://www.w3.org/2000/svg">
  <rect x="1" y="1" width="62" height="62" rx="18" fill="#FFF8F1" stroke="#F7E8D9" stroke-width="1.5"/>
  <g fill="#FFA23A">
    <path d="M21 24C21 21.8 22.8 20 25 20H29V18C29 15.8 30.8 14 33 14H39C41.2 14 43 15.8 43 18V20H47C49.2 20 51 21.8 51 24V40C51 43.3 48.3 46 45 46H19C15.7 46 13 43.3 13 40V24C13 21.8 14.8 20 17 20H21V24ZM33 18V20H39V18H33Z"/>
    <rect x="28" y="30" width="8" height="8" rx="2" fill="white" opacity="0.8"/>
  </g>
</svg>