<svg width="64" height="64" viewBox="0 0 64 64" fill="none" xmlns="http://www.w3.org/2000/svg">
<rect x="1" y="1" width="62" height="62" rx="18" fill="#FFFFFF" stroke="#E2E8F0" stroke-width="1.5"/>
<path fill-rule="evenodd" clip-rule="evenodd" d="M32 15C22.6 15 15 22.8 15 32.4C15 40.1 19.9 46.6 26.7 48.9C27.5 49.1 27.8 48.5 27.8 48.1V45.2C23 46.3 22 42.9 22 42.9C21.2 40.8 20.1 40.3 20.1 40.3C18.5 39.2 20.2 39.2 20.2 39.2C22 39.3 22.9 41.1 22.9 41.1C24.5 43.8 27 43 27.9 42.6C28.1 41.5 28.5 40.8 29 40.4C25.2 40 21.2 38.5 21.2 31.9C21.2 30 21.9 28.5 23 27.3C22.8 26.8 22.2 25 23.2 22.7C23.2 22.7 24.7 22.2 27.9 24.5C29.3 24.1 30.6 23.9 32 23.9C33.4 23.9 34.8 24.1 36.1 24.5C39.3 22.2 40.8 22.7 40.8 22.7C41.8 25 41.2 26.8 41 27.3C42.1 28.5 42.8 30 42.8 31.9C42.8 38.5 38.8 40 35 40.4C35.6 41 36.2 42 36.2 43.6V48.1C36.2 48.5 36.5 49.1 37.3 48.9C44.1 46.6 49 40.1 49 32.4C49 22.8 41.4 15 32 15Z" fill="#0F172A"/>
</svg>